<?xml version="1.0" encoding="utf-8"?>
<!-- Generator: Adobe Illustrator 27.1.1, SVG Export Plug-In . SVG Version: 6.00 Build 0)  -->
<svg version="1.1" id="Layer_1" xmlns="http://www.w3.org/2000/svg" xmlns:xlink="http://www.w3.org/1999/xlink" x="0px" y="0px"
	 viewBox="0 0 50 50" style="enable-background:new 0 0 50 50;" xml:space="preserve">
<style type="text/css">
	.st0{fill:#FFFFF8;}
	.st1{fill:#0B2847;}
	.st2{fill:#FFDD4A;}
	.st3{fill:#5BC5E7;}
</style>
<g>
	<path class="st0" d="M28.5,38.7c-0.4,0-0.8-0.2-1.1-0.5l-21-21c-0.6-0.6-0.6-1.6,0-2.2l14-14c0.3-0.3,0.7-0.5,1.1-0.5
		s0.8,0.2,1.1,0.5l21.1,21.1c0.6,0.6,0.6,1.6,0,2.2l-14,14C29.3,38.6,28.9,38.7,28.5,38.7z"/>
	<path class="st1" d="M21.5,1.1c0.3,0,0.5,0.1,0.7,0.3l21.1,21.1c0.4,0.4,0.4,1.1,0,1.5l-14,14c-0.2,0.2-0.5,0.3-0.7,0.3
		s-0.5-0.1-0.7-0.3L6.7,16.9c-0.4-0.4-0.4-1.1,0-1.5l14-14C20.9,1.2,21.2,1.1,21.5,1.1 M21.5,0.1c-0.5,0-1,0.2-1.4,0.6l-14,14
		c-0.8,0.8-0.8,2.1,0,2.9l21.1,21.1c0.4,0.4,0.9,0.6,1.4,0.6s1-0.2,1.4-0.6l14-14c0.8-0.8,0.8-2.1,0-2.9L22.9,0.7
		C22.5,0.3,22,0.1,21.5,0.1L21.5,0.1z"/>
</g>
<g>
	<path class="st2" d="M17.6,16L14,12.4c-0.3-0.3-0.3-0.9,0-1.2l2.5-2.5c0.3-0.3,0.9-0.3,1.2,0l3.6,3.6c0.3,0.3,0.3,0.9,0,1.2
		L18.9,16C18.5,16.3,18,16.3,17.6,16z"/>
</g>
<g>
	<g>
		<path class="st3" d="M28.5,49.4c-0.4,0-0.8-0.2-1.1-0.5l-21-21c-0.6-0.6-0.6-1.6,0-2.2l14-14c0.3-0.3,0.7-0.5,1.1-0.5
			s0.8,0.2,1.1,0.5l21.1,21.1c0.6,0.6,0.6,1.6,0,2.2l-14,14C29.3,49.3,28.9,49.4,28.5,49.4z"/>
		<path class="st1" d="M21.5,11.8c0.3,0,0.5,0.1,0.7,0.3l21.1,21.1c0.4,0.4,0.4,1.1,0,1.5l-14,14c-0.2,0.2-0.5,0.3-0.7,0.3
			s-0.5-0.1-0.7-0.3L6.7,27.6c-0.4-0.4-0.4-1.1,0-1.5l14-14C20.9,11.9,21.2,11.8,21.5,11.8 M21.5,10.8c-0.5,0-1,0.2-1.4,0.6l-14,14
			c-0.8,0.8-0.8,2.1,0,2.9l21.1,21.1c0.4,0.4,0.9,0.6,1.4,0.6s1-0.2,1.4-0.6l14-14c0.8-0.8,0.8-2.1,0-2.9L22.9,11.4
			C22.5,11,22,10.8,21.5,10.8L21.5,10.8z"/>
	</g>
	<g>
		<path class="st2" d="M17.6,26.7L14,23.1c-0.3-0.3-0.3-0.9,0-1.2l2.5-2.5c0.3-0.3,0.9-0.3,1.2,0l3.6,3.6c0.3,0.3,0.3,0.9,0,1.2
			l-2.5,2.5C18.5,27,18,27,17.6,26.7z"/>
	</g>
</g>
</svg>
