<svg width="50" height="50" viewBox="0 0 50 50" fill="none" xmlns="http://www.w3.org/2000/svg">
<path d="M3.80001 45.7C3.10001 45.7 2.60001 45.2 2.60001 44.5V10.7C2.60001 10 3.10001 9.5 3.80001 9.5H31C31.7 9.5 32.2 10 32.2 10.7V44.5C32.2 45.2 31.7 45.7 31 45.7H3.80001Z" fill="#FFFFF8"/>
<path d="M31 10C31.4 10 31.7 10.3 31.7 10.7V44.5C31.7 44.9 31.4 45.2 31 45.2H3.80001C3.40001 45.2 3.10001 44.9 3.10001 44.5V10.7C3.10001 10.3 3.40001 10 3.80001 10H31ZM31 9H3.80001C2.90001 9 2.10001 9.8 2.10001 10.7V44.5C2.10001 45.4 2.90001 46.2 3.80001 46.2H31C31.9 46.2 32.7 45.4 32.7 44.5V10.7C32.7 9.7 31.9 9 31 9Z" fill="#0B2847"/>
<path d="M6.90001 42.6C6.20001 42.6 5.70001 42.1 5.70001 41.4V7.60002C5.70001 6.90002 6.20001 6.40002 6.90001 6.40002H34.1C34.8 6.40002 35.3 6.90002 35.3 7.60002V41.4C35.3 42.1 34.8 42.6 34.1 42.6H6.90001Z" fill="#FFFFF8"/>
<path d="M34.1 6.90002C34.5 6.90002 34.8 7.20002 34.8 7.60002V41.4C34.8 41.8 34.5 42.1 34.1 42.1H6.90001C6.50001 42.1 6.20001 41.8 6.20001 41.4V7.60002C6.20001 7.20002 6.50001 6.90002 6.90001 6.90002H34.1ZM34.1 5.90002H6.90001C6.00001 5.90002 5.20001 6.70002 5.20001 7.60002V41.4C5.20001 42.3 6.00001 43.1 6.90001 43.1H34.1C35 43.1 35.8 42.3 35.8 41.4V7.60002C35.8 6.70002 35 5.90002 34.1 5.90002Z" fill="#0B2847"/>
<path d="M35.2 45.8C35 45.8 34.9 45.8 34.7 45.7L9.59999 35.3C8.99999 35 8.69999 34.3 8.99999 33.7L22 2.49999C22.2 2.09999 22.6 1.79999 23.1 1.79999C23.3 1.79999 23.4 1.79999 23.6 1.89999L48.7 12.3C49.3 12.6 49.6 13.3 49.3 13.9L36.3 45.1C36.1 45.5 35.7 45.8 35.2 45.8Z" fill="#5BC5E7"/>
<path d="M23.1 2.29999C23.2 2.29999 23.3 2.29999 23.4 2.39999L48.5 12.8C48.7 12.9 48.8 13 48.9 13.2C49 13.4 49 13.6 48.9 13.7L35.9 44.9C35.8 45.2 35.5 45.3 35.3 45.3C35.2 45.3 35.1 45.3 35 45.2L9.79999 34.8C9.39999 34.7 9.29999 34.2 9.39999 33.9L22.4 2.69999C22.6 2.39999 22.8 2.29999 23.1 2.29999ZM23.1 1.29999C22.4 1.29999 21.8 1.69999 21.5 2.29999L8.49999 33.5C8.09999 34.4 8.49999 35.4 9.39999 35.7L34.5 46.1C34.7 46.2 34.9 46.2 35.2 46.2C35.9 46.2 36.5 45.8 36.8 45.2L49.8 14C50.2 13.1 49.8 12.1 48.9 11.8L23.7 1.39999C23.5 1.29999 23.3 1.29999 23.1 1.29999Z" fill="#0B2847"/>
<path d="M29.2 32.5C34.0049 32.5 37.9 28.6049 37.9 23.8C37.9 18.9951 34.0049 15.1 29.2 15.1C24.3951 15.1 20.5 18.9951 20.5 23.8C20.5 28.6049 24.3951 32.5 29.2 32.5Z" fill="#FFDD4A"/>
<path d="M33.9 26.6C34.4 26.7 34.9 26.7 35.4 26.8" stroke="#0B2847" stroke-linecap="round" stroke-linejoin="round"/>
<path d="M38 26.8C41.1 26.6 44.1 25.5 46.7 23.6" stroke="#0B2847" stroke-linecap="round" stroke-linejoin="round" stroke-dasharray="2.69 2.69"/>
<path d="M47.8 22.7C48.1 22.4 48.4 22.2 48.7 21.9L48.9 21.7" stroke="#0B2847" stroke-linecap="round" stroke-linejoin="round"/>
<path d="M0.700012 21.8C1.10001 21.4 1.40001 21.1 1.80001 20.8" stroke="#0B2847" stroke-linecap="round" stroke-linejoin="round"/>
<path d="M4.60001 18.8C10.2 15.8 17 16.1 22.3 19.8" stroke="#0B2847" stroke-linecap="round" stroke-linejoin="round" stroke-dasharray="3.39 3.39"/>
<path d="M23.6 20.8C23.7 20.8 23.7 20.9 23.7 20.9C24 21.2 24.3 21.4 24.5 21.7L24.6 21.8" stroke="#0B2847" stroke-linecap="round" stroke-linejoin="round"/>
<path d="M27.534 26.4547C27.1474 26.2393 26.8116 26.0062 26.5266 25.7556C26.2417 25.5049 26.0162 25.2576 25.85 25.0137L26.5132 23.444C26.7463 23.8378 27.0365 24.1992 27.3839 24.5283C27.7385 24.8606 28.137 25.1201 28.5791 25.3069C28.9697 25.4719 29.3189 25.55 29.6267 25.5411C29.9344 25.5321 30.1521 25.3766 30.2798 25.0744C30.3856 24.8238 30.3861 24.6069 30.2811 24.4236C30.1793 24.2329 30.008 24.0216 29.7673 23.7897L28.816 22.9578C28.5691 22.7406 28.3542 22.5195 28.1713 22.2946C27.9957 22.0728 27.8627 21.8429 27.7722 21.6049C27.6848 21.3595 27.6451 21.1039 27.6532 20.8381C27.6644 20.5649 27.7354 20.2735 27.8662 19.964C27.9938 19.6619 28.1591 19.4147 28.3619 19.2224C28.5678 19.0228 28.7981 18.8683 29.0528 18.7588C29.3149 18.6524 29.5946 18.5968 29.8919 18.5921C30.1891 18.5875 30.4961 18.6216 30.8126 18.6945L31.317 17.5007L32.6988 18.0845L32.1944 19.2783C32.4779 19.4502 32.7299 19.6349 32.9505 19.8323C33.1711 20.0297 33.366 20.2467 33.5353 20.4832L32.8768 22.0419C32.6479 21.6586 32.3825 21.3206 32.0805 21.028C31.7817 20.7281 31.4112 20.4847 30.969 20.2979C30.6226 20.1515 30.3088 20.0927 30.0274 20.1215C29.7565 20.146 29.5665 20.2872 29.4575 20.5452C29.3579 20.781 29.3547 20.9838 29.4481 21.1535C29.5488 21.3263 29.7115 21.5166 29.9363 21.7245L30.9621 22.6269C31.5067 23.1262 31.8501 23.6187 31.9924 24.1044C32.1377 24.5827 32.092 25.1019 31.8554 25.6619C31.597 26.2736 31.2036 26.6806 30.6751 26.8829C30.1572 27.081 29.5785 27.1144 28.9392 26.9833L28.3974 28.2656L27.0156 27.6818L27.534 26.4547Z" fill="#0B2847"/>
</svg>
