<svg width="50" height="50" viewBox="0 0 50 50" fill="none" xmlns="http://www.w3.org/2000/svg">
<path d="M5.1 49.4C4.2 49.4 3.5 48.7 3.5 47.8V2.1C3.5 1.2 4.2 0.5 5.1 0.5H31.1L38.8 8.2V47.8C38.8 48.7 38.1 49.4 37.2 49.4H5.1Z" fill="#FFFFF8"/>
<path d="M30.8 1L38.2 8.4V47.8C38.2 48.4 37.7 48.8 37.2 48.8H5.1C4.5 48.8 4.1 48.3 4.1 47.8V2.1C4.1 1.5 4.6 1.1 5.1 1.1H30.8M31.3 0H5.1C3.9 0 3 0.9 3 2.1V47.9C3 49 3.9 50 5.1 50H37.3C38.5 50 39.4 49.1 39.4 47.9V8L31.3 0Z" fill="#0B2847"/>
<path d="M32.7 7.49999C32.2 7.49999 31.8 7.09999 31.8 6.59999V1.29999L38 7.49999H32.7Z" fill="#0B2847"/>
<path d="M32.3 2.6L36.7 7H32.7C32.5 7 32.3 6.8 32.3 6.6V2.6ZM31.3 0V6.6C31.3 7.4 32 8.1 32.8 8.1H39.4L31.3 0Z" fill="#0B2847"/>
<path d="M8.3 49.4C7.4 49.4 6.7 48.7 6.7 47.8V2.1C6.7 1.2 7.4 0.5 8.3 0.5H34.3L42 8.2V47.8C42 48.7 41.3 49.4 40.4 49.4H8.3Z" fill="#FFFFF8"/>
<path d="M34 1L41.4 8.4V47.8C41.4 48.4 40.9 48.8 40.4 48.8H8.3C7.7 48.8 7.3 48.3 7.3 47.8V2.1C7.3 1.5 7.8 1.1 8.3 1.1H34M34.5 0H8.3C7.1 0 6.2 0.9 6.2 2.1V47.9C6.2 49 7.1 50 8.3 50H40.5C41.7 50 42.6 49.1 42.6 47.9V8L34.5 0Z" fill="#0B2847"/>
<path d="M35.9 7.49999C35.4 7.49999 35 7.09999 35 6.59999V1.29999L41.2 7.49999H35.9Z" fill="#0B2847"/>
<path d="M35.6 2.6L40 7H36C35.8 7 35.6 6.8 35.6 6.6V2.6ZM34.5 0V6.6C34.5 7.4 35.2 8.1 36 8.1H42.6L34.5 0Z" fill="#0B2847"/>
<path d="M11.8 49.4C10.9 49.4 10.2 48.7 10.2 47.8V2.1C10.2 1.2 10.9 0.5 11.8 0.5H37.8L45.5 8.2V47.8C45.5 48.7 44.8 49.4 43.9 49.4H11.8Z" fill="#5BC5E7"/>
<path d="M37.5 1L44.9 8.4V47.8C44.9 48.4 44.4 48.8 43.9 48.8H11.8C11.2 48.8 10.8 48.3 10.8 47.8V2.1C10.8 1.5 11.3 1.1 11.8 1.1H37.5M38 0H11.8C10.6 0 9.7 0.9 9.7 2.1V47.9C9.7 49.1 10.6 50 11.8 50H44C45.2 50 46.1 49.1 46.1 47.9V8L38 0Z" fill="#0B2847"/>
<path d="M39.4 7.49999C38.9 7.49999 38.5 7.09999 38.5 6.59999V1.29999L44.7 7.49999H39.4Z" fill="#0B2847"/>
<path d="M39 2.6L43.4 7H39.4C39.2 7 39 6.8 39 6.6V2.6ZM38 0V6.6C38 7.4 38.6 8 39.4 8H46L38 0Z" fill="#0B2847"/>
<path d="M27.9 26.3C33.2572 26.3 37.6 21.9572 37.6 16.6C37.6 11.2429 33.2572 6.90002 27.9 6.90002C22.5428 6.90002 18.2 11.2429 18.2 16.6C18.2 21.9572 22.5428 26.3 27.9 26.3Z" fill="#FFDD4A"/>
<path d="M27.1 20.2C26.3 20.2 25.6 19.9 25.2 19.7V17.9C25.9 18.3 26.7 18.7 27.5 18.6C28.2 18.6 28.6 18.5 28.6 18.1C28.6 17.7 28.3 17.7 27.9 17.4L26.8 17.1C25.6 16.7 24.9 16.1 24.9 14.9C24.9 13.7 25.7 12.9 26.9 12.7V11.6H28.5V12.7C29 12.8 29.6 13 30 13.1V14.9C29.3 14.5 28.6 14.2 27.8 14.2C27.3 14.2 26.8 14.3 26.8 14.7C26.8 15 27.1 15.1 27.5 15.2L28.6 15.5C30 15.9 30.6 16.6 30.6 17.7C30.6 18.9 29.8 19.6 28.7 19.9V21.1H27.1V20.2Z" fill="#0B2847"/>
<path d="M36.6 29H19.2C16.6 29 14.5 31.1 14.5 33.7C14.5 36.3 16.6 38.4 19.2 38.4H36.6C39.2 38.4 41.3 36.3 41.3 33.7C41.3 31.1 39.2 29 36.6 29Z" fill="#FFFFF8" stroke="#0B2847" stroke-miterlimit="10"/>
<path d="M21.9 34.6V36.1H20.7V31.2H22.9C24 31.2 24.7 31.8 24.7 32.9C24.7 34 24 34.6 22.9 34.6H21.9ZM22.7 32.3H22V33.5H22.7C23.2 33.5 23.4 33.3 23.4 32.9C23.4 32.5 23.1 32.3 22.7 32.3Z" fill="#0B2847"/>
<path d="M27.6 31.2L29.5 36.1H28.2L27.8 35.1H26L25.7 36.1H24.4L26.3 31.2H27.6ZM26.4 34.1H27.4L26.9 32.7L26.4 34.1Z" fill="#0B2847"/>
<path d="M31.1 36.1H29.8V31.2H31.1V36.1Z" fill="#0B2847"/>
<path d="M31.9 31.2H33.7C35.2 31.2 36.2 32.2 36.2 33.7C36.2 35.2 35.3 36.2 33.7 36.2H31.8V31.2H31.9ZM33.7 35C34.5 35 35 34.5 35 33.7C35 32.9 34.5 32.3 33.7 32.3H33.2V35H33.7Z" fill="#0B2847"/>
<path d="M38.5 33.9L39.2 45.9C39.2 46.3 39.8 46.5 40 46.1L43.1 41.3L48.9 41C49.3 41 49.4 40.4 49.1 40.2L39.1 33.5C38.9 33.3 38.5 33.6 38.5 33.9Z" fill="#FFDD4A" stroke="#0B2847" stroke-miterlimit="10"/>
</svg>
