<svg width="50" height="50" viewBox="0 0 50 50" fill="none" xmlns="http://www.w3.org/2000/svg">
<g clip-path="url(#clip0_907_6708)">
<path d="M15 20C17.7614 20 20 17.9853 20 15.5C20 13.0147 17.7614 11 15 11C12.2386 11 10 13.0147 10 15.5C10 17.9853 12.2386 20 15 20Z" fill="#FFDD4A" stroke="#0B2847" stroke-miterlimit="10"/>
<path d="M33.5 16C35.9853 16 38 13.9853 38 11.5C38 9.01472 35.9853 7 33.5 7C31.0147 7 29 9.01472 29 11.5C29 13.9853 31.0147 16 33.5 16Z" fill="#FFDD4A" stroke="#0B2847" stroke-miterlimit="10"/>
<path d="M23.5 10C25.9853 10 28 7.98528 28 5.5C28 3.01472 25.9853 1 23.5 1C21.0147 1 19 3.01472 19 5.5C19 7.98528 21.0147 10 23.5 10Z" fill="#FFDD4A" stroke="#0B2847" stroke-miterlimit="10"/>
<path d="M37.3503 50H10.6497C9.20904 50 7.96045 48.8421 7.96045 47.3947L7 17H41L40.0396 47.3947C39.9435 48.8421 38.791 50 37.3503 50Z" fill="#5BC5E7" stroke="#0B2847" stroke-miterlimit="10"/>
<path d="M23.84 26.6713C23.84 27.0617 23.7424 27.3546 23.6448 27.745C23.5472 28.0378 23.352 28.3307 23.0592 28.6235C22.7663 28.9163 22.4735 29.1115 22.1807 29.2092C21.8878 29.3068 21.4974 29.4044 21.107 29.4044C20.7165 29.4044 20.4237 29.3068 20.0333 29.2092C19.7404 29.1115 19.4476 28.9163 19.1548 28.6235C18.862 28.3307 18.6667 28.0378 18.5691 27.745C18.4715 27.4522 18.3739 27.0617 18.3739 26.6713C18.3739 26.2809 18.4715 25.988 18.5691 25.5976C18.6667 25.3048 18.862 24.9143 19.1548 24.7191C19.4476 24.4263 19.7404 24.2311 20.0333 24.1335C20.3261 24.0358 20.7165 23.9382 21.107 23.9382C21.4974 23.9382 21.7902 24.0358 22.1807 24.1335C22.4735 24.2311 22.8639 24.4263 23.0592 24.7191C23.352 25.0119 23.5472 25.3048 23.6448 25.5976C23.7424 25.988 23.84 26.2809 23.84 26.6713ZM19.838 26.6713C19.838 26.8665 19.838 26.9641 19.9357 27.1594C20.0333 27.3546 20.1309 27.4522 20.2285 27.5498C20.3261 27.6474 20.4237 27.745 20.6189 27.8426C20.8141 27.9402 20.9118 27.9402 21.107 27.9402C21.3022 27.9402 21.3998 27.9402 21.595 27.8426C21.7902 27.745 21.8878 27.6474 21.9855 27.5498C22.0831 27.4522 22.1807 27.257 22.2783 27.1594C22.3759 26.9641 22.3759 26.8665 22.3759 26.6713C22.3759 26.4761 22.3759 26.2809 22.2783 26.1833C22.1807 25.988 22.0831 25.8904 21.9855 25.7928C21.8878 25.6952 21.6926 25.5976 21.595 25.5C21.3998 25.4024 21.3022 25.4024 21.107 25.4024C20.9118 25.4024 20.7165 25.4024 20.6189 25.5C20.4237 25.5976 20.3261 25.6952 20.2285 25.7928C20.1309 25.8904 20.0333 26.0856 19.9357 26.1833C19.9357 26.3785 19.838 26.4761 19.838 26.6713ZM19.9357 36.2371L27.2564 24.1335H28.8181L21.4974 36.2371H19.9357ZM30.2823 33.6992C30.2823 34.0896 30.1847 34.3825 30.0871 34.7729C29.9895 35.0657 29.7942 35.4562 29.5014 35.6514C29.2086 35.9442 28.9157 36.1394 28.6229 36.2371C28.3301 36.3347 27.9396 36.4323 27.5492 36.4323C27.1588 36.4323 26.8659 36.3347 26.4755 36.2371C26.1827 36.1394 25.8898 35.9442 25.597 35.6514C25.3042 35.3586 25.109 35.0657 25.0114 34.7729C24.9137 34.4801 24.8161 34.0896 24.8161 33.6992C24.8161 33.3088 24.9137 33.0159 25.0114 32.6255C25.109 32.3327 25.3042 32.0398 25.597 31.747C25.8898 31.4542 26.1827 31.259 26.4755 31.1613C26.7683 31.0637 27.1588 30.9661 27.5492 30.9661C27.9396 30.9661 28.2325 31.0637 28.6229 31.1613C28.9157 31.259 29.2086 31.4542 29.5014 31.747C29.7942 32.0398 29.9895 32.3327 30.0871 32.6255C30.1847 33.0159 30.2823 33.3088 30.2823 33.6992ZM28.8181 33.6992C28.8181 33.504 28.8181 33.4064 28.7205 33.2112C28.6229 33.0159 28.5253 32.9183 28.4277 32.8207C28.3301 32.7231 28.1349 32.6255 28.0373 32.5279C27.842 32.4303 27.7444 32.4303 27.5492 32.4303C27.354 32.4303 27.2564 32.4303 27.0612 32.5279C26.8659 32.6255 26.7683 32.7231 26.6707 32.8207C26.5731 32.9183 26.4755 33.1135 26.3779 33.2112C26.2803 33.4064 26.2803 33.504 26.2803 33.6992C26.2803 33.8944 26.2803 33.992 26.3779 34.1872C26.4755 34.3825 26.5731 34.4801 26.6707 34.5777C26.7683 34.6753 26.9636 34.7729 27.0612 34.8705C27.2564 34.9681 27.354 34.9681 27.5492 34.9681C27.7444 34.9681 27.842 34.9681 28.0373 34.8705C28.2325 34.7729 28.3301 34.6753 28.4277 34.5777C28.5253 34.4801 28.6229 34.2849 28.7205 34.1872C28.8181 34.0896 28.8181 33.8944 28.8181 33.6992Z" fill="#0B2847"/>
<path d="M30.4488 42H18.4575C9.93246 42 3 34.8571 3 26.0734V19.5097C3 18.1583 4.0305 17 5.43573 17H43.5643C44.8758 17 46 18.0618 46 19.5097V26.0734C45.9063 34.8571 38.9739 42 30.4488 42Z" stroke="#0B2847" stroke-miterlimit="10"/>
<path d="M31.0407 44H17.9593C17.436 44 17 43.5349 17 42.9767V41.0233C17 40.4651 17.436 40 17.9593 40H31.0407C31.564 40 32 40.4651 32 41.0233V42.9767C32 43.5349 31.564 44 31.0407 44Z" fill="#FFFFF8" stroke="#0B2847" stroke-miterlimit="10"/>
<path d="M43.318 20H5.76255C5.28596 20 5 19.6491 5 19.2982V15.7018C5 15.2632 5.38127 15 5.76255 15H43.2226C43.6992 15 43.9852 15.3509 43.9852 15.7018V19.2982C44.0805 19.7368 43.6992 20 43.318 20Z" fill="#5BC5E7" stroke="#0B2847" stroke-miterlimit="10"/>
</g>
<defs>
<clipPath id="clip0_907_6708">
<rect width="50" height="50" fill="white"/>
</clipPath>
</defs>
</svg>
